<?xml version="1.0" encoding="UTF-8"?>
<svg version="1.1" xmlns="http://www.w3.org/2000/svg" width="512" height="512">
<path d="M0 0 C0.75627176 -0.10004042 1.51254352 -0.20008085 2.29173261 -0.3031528 C87.72934424 -11.40151501 191.99105869 -22.23465796 264.67939758 33.40779114 C270.95759683 38.38775509 276.93153939 43.67857836 282.81733704 49.11335754 C283.55028252 49.7852414 284.28322801 50.45712526 285.03838396 51.14936924 C336.0711502 98.35223278 345.04583605 156.88472582 347.72865975 222.95921466 C350.66915996 299.33277484 347.3902319 376.04020479 342.02777255 452.24167962 C341.8657304 454.54793291 341.70637494 456.85436208 341.54706669 459.16080558 C341.2988412 462.72362665 341.03668542 466.28516051 340.76279016 469.84609805 C340.61951214 471.73134928 340.48581067 473.61732092 340.3525337 475.50330555 C339.18510014 489.97042293 335.36513718 498.85740763 324.63764954 508.63288879 C317.14543383 513.61508611 309.92075742 513.60641922 301.1914978 513.5635376 C299.21841405 513.5716159 299.21841405 513.5716159 297.20547003 513.57985741 C293.56954192 513.59427737 289.93384116 513.5900782 286.2979008 513.5826906 C282.37074905 513.57795267 278.44364604 513.59047426 274.51651001 513.60070801 C266.82895962 513.61788888 259.14149099 513.61873753 251.45392639 513.6134951 C245.20466236 513.60945099 238.95542247 513.61089982 232.70615959 513.61624336 C231.37118375 513.617366 231.37118375 513.617366 230.0092387 513.61851131 C228.20114855 513.62004281 226.3930584 513.62158116 224.58496826 513.62312628 C207.6358671 513.63684864 190.68681212 513.63141539 173.73771202 513.61994106 C158.23752434 513.61000804 142.73745602 513.62295102 127.23728675 513.64687525 C111.31397287 513.67126708 95.39071457 513.68087398 79.46738237 513.67422253 C70.53071047 513.67073061 61.59413037 513.6729606 52.65747261 513.69047356 C45.05028559 513.70519653 37.44325503 513.7058297 29.83607108 513.68840265 C25.95641701 513.6798912 22.07704243 513.67774645 18.19740295 513.6930542 C13.98809547 513.70945685 9.77946207 513.69475232 5.57015991 513.67706299 C4.34894709 513.68666799 3.12773427 513.696273 1.869515 513.70616907 C-7.91880411 513.62150303 -16.42461414 510.99877155 -23.68266296 504.17585754 C-33.1138206 492.99161413 -33.11938179 480.6689402 -33.06361389 466.7290802 C-33.06707331 464.84666485 -33.07183979 462.96425153 -33.07779562 461.08184242 C-33.09029612 455.92456896 -33.08413951 450.76746247 -33.07483697 445.61018848 C-33.06804296 440.04228406 -33.07852947 434.47440814 -33.08677673 428.9065094 C-33.10011247 418.00509041 -33.09723701 407.10373341 -33.08853881 396.20231199 C-33.08176206 387.3420279 -33.08084551 378.48176116 -33.08411026 369.62147522 C-33.08456996 368.36015262 -33.08502966 367.09883003 -33.08550329 365.79928553 C-33.08646247 363.23688618 -33.08743511 360.67448683 -33.08842106 358.11208749 C-33.09673069 334.7725407 -33.08811512 311.43303365 -33.07239327 288.09349456 C-33.05815696 266.79736309 -33.05943086 245.50128543 -33.07377625 224.20515442 C-33.08984789 200.26644977 -33.09615052 176.32777875 -33.08693945 152.3890667 C-33.08598381 149.83612442 -33.0850407 147.28318215 -33.08411026 144.73023987 C-33.08364743 143.47416258 -33.08318461 142.2180853 -33.08270776 140.92394507 C-33.08011812 132.0749048 -33.08448831 123.22588363 -33.09154892 114.37684631 C-33.09996502 103.59197806 -33.09768141 92.8071753 -33.08170669 82.02231455 C-33.07382552 76.52034557 -33.07072986 71.01848579 -33.08065414 65.51651764 C-33.08960457 60.47823218 -33.08466228 55.44015695 -33.06872149 50.40189052 C-33.06537519 48.5810297 -33.06706435 46.76015105 -33.07434885 44.93930173 C-33.12324375 31.70005928 -32.64676565 20.8928362 -23.37016296 10.61335754 C-16.14166529 4.05727826 -9.78154689 1.24924002 0 0 Z " fill="#518EF7" transform="translate(102.68266296386719,-1.1758575439453125)"/>
<path d="M0 0 C4.00718114 1.60865797 6.69908469 4.42242015 9.68206787 7.43482971 C10.24493224 7.99527967 10.80779662 8.55572963 11.38771749 9.13316292 C13.27335699 11.01316465 15.15176055 12.90023276 17.03027344 14.78735352 C18.38017786 16.13618511 19.73051511 17.48458366 21.08125305 18.83258057 C24.74871777 22.49519515 28.40989763 26.1640338 32.06986141 29.83414197 C35.89560882 33.66866322 39.72661749 37.49792126 43.5569458 41.3278656 C49.9862032 47.7580597 56.41157407 54.19211674 62.83447266 60.62866211 C70.27135316 68.08128486 77.71346423 75.52865122 85.15858626 82.97304016 C92.31043564 90.12428032 99.45942885 97.27836818 106.60681915 104.43406487 C109.65389863 107.48468427 112.70183441 110.53444438 115.75041962 113.58355904 C119.33470385 117.16884398 122.91644042 120.75665471 126.49617577 124.34648132 C127.81437909 125.66761799 129.13344267 126.98789692 130.45340157 128.30727959 C132.24654672 130.09993791 134.03661057 131.89561522 135.8258667 133.69215393 C136.35619814 134.22093677 136.88652957 134.7497196 137.43293166 135.29452616 C141 138.88582118 141 138.88582118 141 140 C126.32629006 140.09370597 111.65262008 140.16410722 96.97867107 140.20724869 C90.16430813 140.22781818 83.35013179 140.25583023 76.53588867 140.30175781 C69.95472972 140.34609304 63.37371306 140.36916561 56.79239845 140.37950897 C54.28668996 140.3868763 51.78099156 140.40126281 49.27536583 140.42292023 C45.75455562 140.45213079 42.23453573 140.4559485 38.71362305 140.45410156 C37.68718689 140.46848267 36.66075073 140.48286377 35.60321045 140.49768066 C24.48777973 140.43495075 16.08441546 137.07939226 8.09765625 129.37109375 C5.25790307 126.1611679 3.43083547 123.02033662 2 119 C1.48978806 117.79451004 1.48978806 117.79451004 0.9692688 116.56466675 C-0.36645901 111.65227864 -0.26225826 107.01382921 -0.22705078 101.94580078 C-0.22734283 100.84277115 -0.22763489 99.73974152 -0.22793579 98.60328674 C-0.22654546 94.96721456 -0.21099796 91.33134877 -0.1953125 87.6953125 C-0.19158132 85.17040112 -0.18873484 82.6454883 -0.18673706 80.12057495 C-0.17988804 74.16023422 -0.16413438 68.19995941 -0.14403808 62.23965251 C-0.12164876 55.45126117 -0.11067804 48.66286621 -0.10064721 41.87444711 C-0.07976724 27.9162573 -0.04461024 13.9581327 0 0 Z " fill="#AACFFC" transform="translate(301,0)"/>
<path d="M0 0 C62.7 0 125.4 0 190 0 C190 6.93 190 13.86 190 21 C127.3 21 64.6 21 0 21 C0 14.07 0 7.14 0 0 Z " fill="#FDFDFE" transform="translate(161,351)"/>
<path d="M0 0 C62.7 0 125.4 0 190 0 C190 6.93 190 13.86 190 21 C127.3 21 64.6 21 0 21 C0 14.07 0 7.14 0 0 Z " fill="#FDFEFE" transform="translate(161,304)"/>
<path d="M0 0 C62.7 0 125.4 0 190 0 C190 6.93 190 13.86 190 21 C127.3 21 64.6 21 0 21 C0 14.07 0 7.14 0 0 Z " fill="#FEFEFE" transform="translate(161,257)"/>
<path d="M0 0 C44.55 0 89.1 0 135 0 C135 6.93 135 13.86 135 21 C90.45 21 45.9 21 0 21 C0 14.07 0 7.14 0 0 Z " fill="#FCFDFE" transform="translate(161,398)"/>
<path d="M0 0 C55.935 0.495 55.935 0.495 113 1 C113 15.85 113 30.7 113 46 C106.25046806 44.87507801 106.25046806 44.87507801 103.17407227 43.57983398 C102.47805405 43.29058548 101.78203583 43.00133698 101.06492615 42.70332336 C100.32291458 42.38743759 99.58090302 42.07155182 98.81640625 41.74609375 C98.02085831 41.41365158 97.22531036 41.08120941 96.40565491 40.73869324 C94.68741692 40.01985327 92.9703883 39.29811707 91.25445557 38.5737915 C87.58774662 37.02605042 83.9152609 35.49224037 80.24316406 33.95733643 C78.33822848 33.16084383 76.43360941 32.36359386 74.52929688 31.56561279 C64.91408495 27.53755789 55.27237367 23.57527146 45.625 19.625 C44.00779947 18.96218999 42.39061185 18.29934849 40.7734375 17.63647461 C27.19054203 12.07075248 13.59858691 6.52727125 0 1 C0 0.67 0 0.34 0 0 Z " fill="#3A5BBC" transform="translate(328,140)"/>
</svg>
