<?xml version="1.0" encoding="UTF-8"?>
<svg version="1.1" xmlns="http://www.w3.org/2000/svg" width="30" height="30">
<path d="M0 0 C0.33 1.32 0.66 2.64 1 4 C1.928125 3.95875 2.85625 3.9175 3.8125 3.875 C7 4 7 4 10 6 C10.39259107 10.23998354 10.32490278 13.36733941 8 17 C8.825 17.4125 9.65 17.825 10.5 18.25 C11.7375 19.11625 11.7375 19.11625 13 20 C13 21.32 13 22.64 13 24 C7.72 24 2.44 24 -3 24 C-2.67 22.35 -2.34 20.7 -2 19 C-4.70879335 17.64560332 -7.00933268 17.93498549 -10 18 C-9.625 16.0625 -9.625 16.0625 -9 14 C-8.34 13.67 -7.68 13.34 -7 13 C-7.66 12.67 -8.32 12.34 -9 12 C-9.0270043 10.54176788 -9.04639787 9.08339325 -9.0625 7.625 C-9.07410156 6.81289062 -9.08570313 6.00078125 -9.09765625 5.1640625 C-9 3 -9 3 -8 1 C-5.07175348 0.02391783 -3.04386724 -0.08226668 0 0 Z M-1 6 C-1 8.31 -1 10.62 -1 13 C-0.67 13 -0.34 13 0 13 C0 10.69 0 8.38 0 6 C-0.33 6 -0.66 6 -1 6 Z M0 13 C1 15 1 15 1 15 Z M1 15 C0.67 15.99 0.34 16.98 0 18 C0.99 17.67 1.98 17.34 3 17 C2.34 16.34 1.68 15.68 1 15 Z " fill="#218AE8" transform="translate(10,3)"/>
<path d="M0 0 C2.33944736 0.28730055 4.6739143 0.61936779 7 1 C7.125 8.625 7.125 8.625 6 12 C7.32 12.66 8.64 13.32 10 14 C10 15.32 10 16.64 10 18 C6.7 18 3.4 18 0 18 C-0.33 17.01 -0.66 16.02 -1 15 C-0.67 14.34 -0.34 13.68 0 13 C0.15836548 8.80331465 -0.15661251 5.09645353 -1 1 C-0.67 0.67 -0.34 0.34 0 0 Z " fill="#228AE9" transform="translate(20,3)"/>
</svg>
