<?xml version="1.0" encoding="UTF-8"?>
<svg version="1.1" xmlns="http://www.w3.org/2000/svg" width="512" height="512">
<path d="M0 0 C0.81238292 -0.00350607 1.62476584 -0.00701215 2.46176642 -0.01062447 C5.2073309 -0.01999183 7.95268574 -0.01500148 10.69825935 -0.01015663 C12.677191 -0.01389021 14.65612117 -0.01849055 16.63504899 -0.02388728 C22.09139008 -0.03616888 27.5476701 -0.03585076 33.00402188 -0.03349853 C38.88143 -0.03309166 44.7588182 -0.044117 50.63621712 -0.05361366 C62.15787221 -0.07025274 73.67950684 -0.07572451 85.20117293 -0.07683842 C94.56271396 -0.0777567 103.92424859 -0.08186915 113.28578758 -0.08823967 C115.9782642 -0.09003469 118.67074084 -0.09181432 121.36321747 -0.09358943 C122.03253154 -0.09403152 122.70184561 -0.09447362 123.39144192 -0.09492911 C142.22379533 -0.10724139 161.05614642 -0.11512984 179.88850403 -0.11424255 C180.59885281 -0.1142114 181.3092016 -0.11418024 182.0410761 -0.11414814 C185.64160747 -0.11398192 189.24213883 -0.11378383 192.84267019 -0.11357872 C193.91533224 -0.11351889 193.91533224 -0.11351889 195.00966423 -0.11345784 C196.45578752 -0.11337697 197.9019108 -0.11329337 199.34803409 -0.11320706 C221.85136784 -0.11198133 244.35464134 -0.12699714 266.85795784 -0.15435219 C292.12672355 -0.18505609 317.39544968 -0.20228571 342.66423523 -0.20042574 C345.35734057 -0.20027648 348.05044591 -0.20017907 350.74355125 -0.20011711 C351.40668687 -0.2000938 352.06982248 -0.20007049 352.75305312 -0.20004648 C362.77455407 -0.19998868 372.79600177 -0.21070042 382.81748772 -0.22678185 C394.21202789 -0.24494886 405.60646933 -0.24937793 417.00101767 -0.235763 C422.81829254 -0.22921075 428.63537772 -0.22919726 434.45263481 -0.2464695 C439.77347618 -0.26210579 445.09397597 -0.25943384 450.41480853 -0.24190123 C452.34413705 -0.23881041 454.27349047 -0.24254127 456.20278965 -0.25362138 C458.81737462 -0.26764774 461.4307457 -0.25723157 464.04528809 -0.24050903 C464.80138129 -0.25044539 465.55747449 -0.26038175 466.3364796 -0.27061921 C471.225378 -0.2041168 473.70683842 0.7914498 477.14848518 4.25726891 C479.21794547 7.32922326 479.40253453 9.81897746 479.41591072 13.48135948 C479.42870567 15.06687614 479.42870567 15.06687614 479.44175911 16.68442345 C479.44085274 17.83880913 479.43994637 18.99319481 479.43901253 20.18256187 C479.44572975 21.40245811 479.45244698 22.62235435 479.45936775 23.87921715 C479.47511202 27.22232789 479.48172285 30.5651902 479.48299932 33.9083209 C479.48442186 35.99825128 479.4886934 38.08815569 479.49399376 40.17807961 C479.51249208 47.47288476 479.52066464 54.76761686 479.51909065 62.06244469 C479.51788935 68.85626677 479.53898965 75.64977111 479.57057798 82.4435128 C479.59675232 88.281446 479.60745747 94.11927551 479.60617983 99.95726693 C479.60567053 103.4417794 479.61133592 106.92600945 479.63253593 110.41046333 C479.65554401 114.29816348 479.64639026 118.18542976 479.63432503 122.07318687 C479.64556404 123.22352409 479.65680305 124.37386131 479.66838264 125.55905724 C479.61950347 131.75069287 479.39771482 135.60154156 475.14848518 140.25726891 C471.43305706 142.73422099 468.59579036 142.53776528 464.29697037 142.51453781 C463.48458745 142.51804389 462.67220453 142.52154996 461.83520395 142.52516228 C459.08963946 142.53452965 456.34428462 142.52953929 453.59871101 142.52469444 C451.61977937 142.52842802 449.64084919 142.53302836 447.66192138 142.53842509 C442.20558029 142.55070669 436.74930026 142.55038857 431.29294848 142.54803634 C425.41554036 142.54762947 419.53815217 142.55865481 413.66075325 142.56815147 C402.13909816 142.58479055 390.61746353 142.59026233 379.09579743 142.59137623 C369.73425641 142.59229451 360.37272178 142.59640696 351.01118279 142.60277748 C348.31870616 142.60457251 345.62622953 142.60635213 342.93375289 142.60812724 C342.26443883 142.60856933 341.59512476 142.60901143 340.90552845 142.60946692 C322.07317504 142.6217792 303.24082394 142.62966766 284.40846634 142.62878036 C283.69811755 142.62874921 282.98776877 142.62871805 282.25589427 142.62868595 C278.6553629 142.62851973 275.05483154 142.62832164 271.45430018 142.62811653 C270.73919215 142.62807664 270.02408411 142.62803675 269.28730614 142.62799565 C267.84118285 142.62791478 266.39505956 142.62783118 264.94893627 142.62774487 C242.44560253 142.62651914 219.94232903 142.64153495 197.43901253 142.66889 C172.17024681 142.6995939 146.90152069 142.71682352 121.63273513 142.71496356 C118.93962979 142.71481429 116.24652446 142.71471688 113.55341911 142.71465492 C112.8902835 142.71463161 112.22714788 142.71460831 111.54391725 142.71458429 C101.52241629 142.7145265 91.5009686 142.72523823 81.47948265 142.74131966 C70.08494248 142.75948667 58.69050104 142.76391574 47.29595269 142.75030081 C41.47867783 142.74374856 35.66159264 142.74373507 29.84433556 142.76100731 C24.52349419 142.7766436 19.20299439 142.77397165 13.88216184 142.75643905 C11.95283332 142.75334822 10.0234799 142.75707909 8.09418072 142.7681592 C5.47959575 142.78218555 2.86622467 142.77176938 0.25168228 142.75504684 C-0.88245752 142.76995138 -0.88245752 142.76995138 -2.03950924 142.78515702 C-6.92840763 142.71865461 -9.40986806 141.72308801 -12.85151482 138.25726891 C-14.92097511 135.18531455 -15.10556416 132.69556035 -15.11894035 129.03317833 C-15.12747032 127.97616722 -15.13600029 126.91915611 -15.14478874 125.83011436 C-15.14388237 124.67572868 -15.142976 123.521343 -15.14204216 122.33197594 C-15.14875938 121.1120797 -15.15547661 119.89218346 -15.16239738 118.63532066 C-15.17814165 115.29220992 -15.18475248 111.94934761 -15.18602896 108.60621691 C-15.1874515 106.51628654 -15.19172303 104.42638212 -15.19702339 102.33645821 C-15.21552171 95.04165306 -15.22369427 87.74692095 -15.22212029 80.45209312 C-15.22091898 73.65827104 -15.24201928 66.8647667 -15.27360761 60.07102501 C-15.29978196 54.23309181 -15.3104871 48.3952623 -15.30920947 42.55727088 C-15.30870016 39.07275841 -15.31436555 35.58852837 -15.33556557 32.10407448 C-15.35857365 28.21637433 -15.34941989 24.32910805 -15.33735466 20.44135094 C-15.34859367 19.29101372 -15.35983269 18.1406765 -15.37141228 16.95548058 C-15.32253311 10.76384494 -15.10074445 6.91299625 -10.85151482 2.25726891 C-7.13608669 -0.21968318 -4.29881999 -0.02322747 0 0 Z M22.14848518 33.25726891 C20.59320448 36.10880038 19.8661005 38.13827763 20.67711067 41.35202599 C21.65910912 43.86391085 22.75557925 46.2906618 23.90629768 48.72992516 C24.31921059 49.6462925 24.73212349 50.56265984 25.1575489 51.50679588 C26.03275361 53.44806861 26.91554529 55.38593615 27.80534554 57.32056236 C29.53249453 61.09688582 31.19477442 64.8999057 32.85594368 68.70560265 C34.4858979 72.43667164 36.13324198 76.15995619 37.78032112 79.88348961 C39.04563123 82.74484977 40.30807012 85.60746599 41.57036018 88.47015953 C42.38529496 90.31463542 43.20039278 92.15903929 44.01567268 94.00336266 C44.38755714 94.84708931 44.7594416 95.69081596 45.14259529 96.56011009 C48.68285539 106.13273398 48.68285539 106.13273398 56.14848518 112.25726891 C59.14962232 112.18407044 60.62835361 111.65709095 63.00297737 109.8317318 C66.19500303 106.00151894 67.92797957 101.67527735 69.91411018 97.12836266 C70.35237129 96.14231544 70.7906324 95.15626823 71.24217415 94.14034081 C72.16427381 92.06026534 73.08184056 89.97817528 73.99516487 87.8942318 C75.39694982 84.69826942 76.81450313 81.50966253 78.23442268 78.32172203 C79.12859239 76.29935116 80.02185308 74.27657808 80.91411018 72.25336266 C81.33903755 71.29707466 81.76396492 70.34078667 82.20176888 69.35552025 C82.78302528 68.02382553 82.78302528 68.02382553 83.37602425 66.66522789 C83.71925728 65.88453438 84.06249031 65.10384087 84.41612434 64.29948997 C85.31726563 62.14821149 85.31726563 62.14821149 85.14848518 59.25726891 C88.20558819 60.78582041 88.58517624 63.17607865 89.90629768 66.28461266 C90.17059578 66.90108665 90.43489388 67.51756065 90.707201 68.15271568 C91.27409746 69.47698083 91.83801984 70.80252227 92.39927864 72.12918663 C93.27340308 74.19457491 94.15568235 76.25628791 95.04057503 78.31708336 C96.20935493 81.04018198 97.37566956 83.76430659 98.53911018 86.48969078 C100.59985982 91.31570428 102.67168307 96.13647345 104.77348518 100.94476891 C105.07915413 101.66076256 105.38482307 102.37675621 105.69975471 103.11444664 C107.69739335 107.72769125 107.69739335 107.72769125 111.14848518 111.25726891 C114.13891517 112.08440912 116.19770028 112.57897771 119.17167854 111.57269859 C121.76994821 109.84372775 122.50515278 108.21698204 123.83989143 105.39789391 C124.35309944 104.317015 124.86630745 103.23613609 125.39506721 102.12250328 C125.98269076 100.83552584 126.56691978 99.54699526 127.14848518 98.25726891 C127.47773994 97.52709557 127.80699471 96.79692223 128.14622688 96.04462242 C130.83447519 90.05030549 133.46246384 84.03012201 136.08598518 78.00726891 C137.25312777 75.33694768 138.4211298 72.66700381 139.5893116 69.99713707 C140.35083071 68.2537597 141.11043717 66.50954553 141.86805916 64.76447105 C143.63560092 60.69529759 145.42229856 56.63854766 147.27397346 52.60687828 C147.60256859 51.8829287 147.93116371 51.15897911 148.26971626 50.41309166 C148.87754767 49.07694787 149.4939343 47.74464547 150.12088203 46.41736412 C151.8675083 42.55175698 152.68517868 39.49198045 152.14848518 35.25726891 C149.64447513 32.17059185 149.64447513 32.17059185 146.14848518 30.25726891 C142.99476109 29.92176044 142.99476109 29.92176044 140.14848518 31.25726891 C136.02006859 35.52271515 133.96725904 40.64489944 131.63676643 46.01117516 C131.22307304 46.94904366 130.80937965 47.88691216 130.3831501 48.85320091 C129.51322188 50.82935357 128.64690319 52.80709866 127.78398323 54.78632164 C126.4625675 57.81614088 125.1297518 60.84073977 123.79496956 63.86469078 C122.94989626 65.7882237 122.10547282 67.71204228 121.26176643 69.63617516 C120.86387413 70.54041725 120.46598183 71.44465935 120.05603218 72.37630272 C119.5049202 73.64298035 119.5049202 73.64298035 118.94267464 74.93524742 C118.61942711 75.67517433 118.29617958 76.41510124 117.96313667 77.17745018 C117.17557997 79.18809546 116.62042271 81.15242271 116.14848518 83.25726891 C115.48848518 83.25726891 114.82848518 83.25726891 114.14848518 83.25726891 C114.02049034 82.52407936 113.8924955 81.79088982 113.76062202 81.03548241 C113.18603165 78.4276754 112.4194161 76.24657882 111.35429573 73.80585289 C110.98688774 72.95824898 110.61947975 72.11064507 110.24093819 71.23735619 C109.84304588 70.33513832 109.44515358 69.43292046 109.03520393 68.50336266 C108.62438072 67.56549416 108.21355751 66.62762566 107.79028511 65.6613369 C106.92119887 63.68246699 106.04940633 61.70478374 105.17509651 59.72821617 C103.84121071 56.70660612 102.52281833 53.67854742 101.20512581 50.64984703 C100.35775831 48.72560478 99.50948124 46.80176276 98.66020393 44.87836266 C98.26838432 43.97412056 97.87656471 43.06987846 97.47287178 42.13823509 C94.22876995 34.7241817 94.22876995 34.7241817 87.71098518 30.31976891 C84.28953982 30.23631902 82.90257278 31.26004815 80.14848518 33.25726891 C78.51415006 35.60624418 78.51415006 35.60624418 77.28911018 38.41742516 C76.53404182 40.02254967 76.53404182 40.02254967 75.76371956 41.66010094 C75.23069221 42.84716637 74.69766487 44.0342318 74.14848518 45.25726891 C73.72031502 46.20651237 73.72031502 46.20651237 73.28349495 47.17493248 C71.11410439 51.99720411 69.00207875 56.84352268 66.89848518 61.69476891 C66.2685542 63.13955132 65.63834724 64.58421344 65.00786018 66.02875328 C64.40344656 67.4160155 63.79927104 68.80338149 63.19536018 70.19086266 C62.91827217 70.82737251 62.64118416 71.46388237 62.35569954 72.1196804 C60.89952216 75.4788028 59.48855116 78.85012287 58.14848518 82.25726891 C56.02576257 79.58564477 54.47150732 77.05203425 53.12724495 73.91937828 C52.75998802 73.07169884 52.39273109 72.22401939 52.01434517 71.35065269 C51.62677544 70.44327354 51.2392057 69.53589439 50.83989143 68.60101891 C50.00222331 66.67253683 49.16432565 64.74415444 48.32621956 62.81586266 C47.01501278 59.78236008 45.70683939 56.74761216 44.40312386 53.71088219 C43.14021906 50.77481296 41.86576641 47.84397035 40.58989143 44.91351891 C40.20434593 44.00613976 39.81880043 43.0987606 39.42157173 42.16388512 C36.75220856 36.03321928 36.75220856 36.03321928 32.14848518 31.25726891 C27.87635597 29.61414228 25.62316118 30.34605388 22.14848518 33.25726891 Z M169.46098518 31.88226891 C166.61006526 34.81024072 166.40380706 36.22008666 166.14848518 40.25726891 C167.0198203 43.39512267 167.0198203 43.39512267 168.55082893 46.57758141 C168.81964882 47.18220207 169.0884687 47.78682274 169.36543465 48.40976524 C170.25775259 50.40749906 171.17135406 52.39466357 172.08598518 54.38226891 C172.71810142 55.78173032 173.34885414 57.18180832 173.97831917 58.58246422 C174.9750613 60.79829828 175.97361222 63.01320751 176.97839546 65.22540855 C179.53942304 70.86792565 182.01676613 76.54322384 184.46879768 82.23383141 C185.53465843 84.69140422 186.60207045 87.14829583 187.67024422 89.60486412 C188.36111468 91.19964184 189.04790198 92.79619497 189.73048592 94.39453697 C190.69173773 96.64101513 191.6700095 98.87934128 192.65239143 101.11664391 C192.93216835 101.78193108 193.21194527 102.44721825 193.50020027 103.13266563 C195.35402216 107.29699899 197.27959245 109.82035157 201.14848518 112.25726891 C204.25141811 112.50403897 204.25141811 112.50403897 207.14848518 111.25726891 C210.46470754 107.67007595 212.41122922 103.92172856 214.39067268 99.47992516 C214.68152748 98.83212593 214.97238228 98.18432671 215.27205086 97.5168972 C216.19605285 95.45417126 217.109792 93.38707843 218.02348518 91.31976891 C218.62830875 89.96726666 219.23377277 88.61505063 219.83989143 87.26312828 C221.62661741 83.26867035 223.39113024 79.26472156 225.14848518 75.25726891 C225.44420418 74.58508324 225.73992317 73.91289757 226.04460335 73.22034264 C226.89874422 71.27490413 227.74729282 69.32713405 228.59379768 67.37836266 C229.08638069 66.24712975 229.5789637 65.11589684 230.08647346 63.95038414 C231.27076842 61.42966725 231.27076842 61.42966725 231.14848518 59.25726891 C231.80848518 59.25726891 232.46848518 59.25726891 233.14848518 59.25726891 C233.32013695 59.80236107 233.49178871 60.34745323 233.66864204 60.90906334 C235.48084113 66.52010148 237.61413546 71.89236063 240.01957893 77.27289391 C240.38318016 78.09175072 240.74678139 78.91060753 241.12140083 79.75427818 C241.88482587 81.46946985 242.65047265 83.18367424 243.41826057 84.89691734 C244.58752945 87.51072099 245.74425154 90.12984442 246.90043831 92.74945641 C247.64772906 94.42427315 248.39575074 96.098764 249.14457893 97.77289391 C249.48637688 98.5500576 249.82817482 99.3272213 250.18033028 100.12793541 C252.06438518 104.29882157 253.95806853 107.89723924 257.14848518 111.25726891 C260.04555225 112.50403897 260.04555225 112.50403897 263.14848518 112.25726891 C267.31627494 109.53331625 269.15030951 106.90186542 271.13676643 102.38617516 C271.67100227 101.18920006 272.20523811 99.99222496 272.75566292 98.75897789 C273.32476476 97.44619462 273.89318712 96.13311661 274.46098518 94.81976891 C275.05914879 93.45878781 275.65820761 92.09819986 276.25810432 90.7379818 C277.54398907 87.81572326 278.82072954 84.88965735 280.09282112 81.96137047 C281.87298033 77.87274536 283.68961884 73.80128128 285.51556587 69.73293114 C287.01846325 66.37864689 288.50755083 63.01834528 289.99379158 59.65665245 C290.71941919 58.02103523 291.44971915 56.38748256 292.18477058 54.75607872 C293.21734757 52.45927887 294.23000167 50.15464124 295.23832893 47.84711266 C295.70440056 46.82706642 295.70440056 46.82706642 296.17988777 45.78641319 C298.00378815 41.54405782 298.50708231 38.70178185 297.14848518 34.25726891 C295.07999648 31.685775 295.07999648 31.685775 292.14848518 30.25726891 C288.63155313 30.25726891 286.8624323 30.66264759 284.15165901 32.92035484 C281.78558714 35.68062784 280.57495194 38.29931597 279.16020393 41.64789391 C278.89586555 42.26563683 278.63152718 42.88337975 278.35917854 43.51984215 C277.50904519 45.51193637 276.67239061 47.50937717 275.83598518 49.50726891 C275.25659942 50.87257555 274.6762751 52.2374843 274.09501839 53.60199547 C272.95672891 56.27587413 271.8226915 58.95149381 270.69145393 61.62836266 C268.2706089 67.32194504 265.74724909 72.96850897 263.22270393 78.61664391 C262.02287916 81.09090427 262.02287916 81.09090427 262.14848518 83.25726891 C261.48848518 83.25726891 260.82848518 83.25726891 260.14848518 83.25726891 C259.60127815 81.47256187 259.60127815 81.47256187 259.04301643 79.65180016 C257.00391027 73.541649 254.35285425 67.70802467 251.69755745 61.8473568 C250.84329325 59.96090713 249.99634879 58.07130501 249.15043831 56.18109703 C247.50961361 52.52721882 245.83575241 48.88996174 244.14848518 45.25726891 C243.34918587 43.53177818 243.34918587 43.53177818 242.53373909 41.77142906 C242.02117561 40.70070152 241.50861214 39.62997398 240.98051643 38.52680016 C240.53039192 37.58038658 240.08026741 36.63397301 239.61650276 35.65888023 C238.04469333 33.08747005 236.74330345 31.7681558 234.14848518 30.25726891 C231.09578056 30.09915502 231.09578056 30.09915502 228.14848518 31.25726891 C224.35021305 35.24174493 222.3301525 39.77219203 220.14457893 44.74164391 C219.78002098 45.55667381 219.41546303 46.37170372 219.03985786 47.2114315 C218.27250838 48.93120358 217.50873565 50.65257554 216.7483387 52.37543297 C215.59427938 54.98848895 214.42802705 57.59582754 213.25981331 60.20258141 C212.51233606 61.88194308 211.7655683 63.56162077 211.01957893 65.24164391 C210.67575676 66.01071068 210.33193459 66.77977745 209.97769356 67.57214928 C207.71762789 72.71072679 205.83445788 77.90334489 204.14848518 83.25726891 C203.48848518 83.25726891 202.82848518 83.25726891 202.14848518 83.25726891 C201.97601768 82.71471458 201.80355019 82.17216026 201.6258564 81.6131649 C199.79059436 75.96032314 197.67990951 70.48770368 195.34770393 65.02289391 C194.98884605 64.18184105 194.62998817 63.34078819 194.26025581 62.47424889 C193.50531357 60.71197661 192.74805677 58.9506942 191.98857307 57.19037437 C191.21841468 55.39752524 190.45541463 53.60158457 189.69951057 51.80267906 C188.59795243 49.18155761 187.47536087 46.57037572 186.34770393 43.96039391 C186.01622856 43.16135643 185.68475319 42.36231895 185.34323311 41.53906822 C183.08313664 36.39639152 180.88748709 33.36006234 176.14848518 30.25726891 C172.19554215 29.91232268 172.19554215 29.91232268 169.46098518 31.88226891 Z M314.77348518 32.31976891 C311.92856085 34.9471563 311.92856085 34.9471563 311.79423714 37.97797203 C312.22057168 41.9245782 313.53230517 45.10943721 315.19145393 48.66351891 C315.67152145 49.72843811 315.67152145 49.72843811 316.16128731 50.81487083 C317.20911655 53.13388615 318.27216786 55.44554977 319.33598518 57.75726891 C320.81017316 60.99628275 322.27802348 64.23815645 323.74614143 67.47992516 C324.11745186 68.2967527 324.48876228 69.11358025 324.87132454 69.95516014 C327.29821453 75.31207342 329.63092315 80.700623 331.89457893 86.12836266 C332.47310667 87.50596857 333.05163847 88.88357278 333.63017464 90.26117516 C334.44678295 92.20815247 335.25794965 94.1565021 336.05214119 96.11273766 C339.77234819 105.62984823 339.77234819 105.62984823 347.14848518 112.25726891 C350.30220927 112.59277737 350.30220927 112.59277737 353.14848518 111.25726891 C357.27690177 106.99182266 359.32971133 101.86963837 361.66020393 96.50336266 C362.07389732 95.56549416 362.48759071 94.62762566 362.91382027 93.6613369 C363.78374849 91.68518424 364.65006718 89.70743915 365.51298714 87.72821617 C366.83440287 84.69839693 368.16721857 81.67379804 369.50200081 78.64984703 C370.34707411 76.72631411 371.19149755 74.80249553 372.03520393 72.87836266 C372.43309624 71.97412056 372.83098854 71.06987846 373.24093819 70.13823509 C373.60834618 69.29378334 373.97575417 68.44933159 374.35429573 67.57929039 C374.83916702 66.46940002 374.83916702 66.46940002 375.33383369 65.33708763 C376.1213904 63.32644235 376.67654766 61.3621151 377.14848518 59.25726891 C377.80848518 59.25726891 378.46848518 59.25726891 379.14848518 59.25726891 C379.27491402 59.98634453 379.40134285 60.71542015 379.53160286 61.46658897 C380.12335096 64.14356559 380.92996019 66.39822457 382.01860237 68.90814781 C382.40280342 69.79902092 382.78700447 70.68989403 383.18284798 71.60776329 C383.59947701 72.55686577 384.01610603 73.50596825 384.44536018 74.48383141 C384.87600777 75.46846367 385.30665535 76.45309593 385.75035286 77.46756554 C386.66208296 79.54489267 387.57676452 81.62092659 388.49418831 83.69574547 C389.89372819 86.87147469 391.27121172 90.05620715 392.64848518 93.24164391 C393.53776163 95.26046764 394.42834313 97.27871711 395.32036018 99.29633141 C395.72889229 100.24948235 396.13742439 101.20263329 396.55833626 102.18466759 C398.86956703 107.36057268 398.86956703 107.36057268 402.75883675 111.3798275 C406.04465101 112.58632693 407.84198103 112.38288734 411.14848518 111.25726891 C414.22285732 107.90493269 416.09420063 104.57361665 417.85551643 100.40180016 C418.60140022 98.6555233 418.60140022 98.6555233 419.36235237 96.87396812 C419.89528038 95.6059229 420.42815662 94.33785592 420.96098518 93.06976891 C422.10481609 90.37955464 423.25392047 87.69159867 424.40239143 85.00336266 C424.85012413 83.95206169 424.85012413 83.95206169 425.30690193 82.87952232 C427.59450345 77.51834107 429.93548987 72.18222296 432.30082893 66.85492516 C432.64366417 66.08229836 432.9864994 65.30967155 433.33972359 64.51363182 C434.69214615 61.46787164 436.04570648 58.42263495 437.40400887 55.37949181 C438.34764741 53.26445 439.28742228 51.14772741 440.22661018 49.03070641 C440.50830559 48.40281715 440.79000099 47.7749279 441.08023262 47.1280117 C443.92950465 41.23361544 443.92950465 41.23361544 442.96098518 35.13226891 C441.12299289 32.21683285 440.43312861 31.12673334 437.14848518 30.25726891 C434.21339551 30.40402339 432.62583699 30.89353058 430.28569221 32.6767025 C427.10298333 36.51965806 425.40984813 40.85844318 423.45317268 45.42133141 C423.01965492 46.40975029 422.58613716 47.39816917 422.1394825 48.41654015 C420.75859762 51.56798972 419.39026722 54.7246803 418.02348518 57.88226891 C416.64794683 61.04624718 415.26972814 64.2089873 413.88606453 67.36942101 C413.02618647 69.33481932 412.17127821 71.30240081 411.32179451 73.27231407 C410.74076469 74.60412209 410.74076469 74.60412209 410.1479969 75.96283531 C409.80920509 76.74574944 409.47041328 77.52866356 409.12135506 78.33530235 C408.14848518 80.25726891 408.14848518 80.25726891 406.14848518 82.25726891 C397.74028206 63.03851891 397.74028206 63.03851891 396.81880379 60.93134117 C396.20105243 59.5199675 395.58237472 58.10899894 394.96278572 56.69843102 C393.36221352 53.05125375 391.77977108 49.39777708 390.22709846 45.72992516 C389.75965973 44.63539024 389.75965973 44.63539024 389.28277779 43.51874352 C388.69025328 42.1301267 388.10329205 40.73911817 387.52285957 39.34540367 C385.57014188 34.75729731 385.57014188 34.75729731 382.14848518 31.25726891 C379.20832531 30.44403319 377.11443443 29.96314479 374.16484261 30.86127281 C371.25182144 32.87806117 370.34362228 35.22240174 368.82426643 38.40570641 C368.52659874 39.02440605 368.22893105 39.6431057 367.92224312 40.28055382 C364.53512796 47.39533996 361.42489235 54.63442337 358.33598518 61.88226891 C357.47748709 63.88744581 356.61779574 65.89210209 355.75695992 67.89627647 C354.98836017 69.68704413 354.2229806 71.47919292 353.45781136 73.27142906 C352.68611373 75.03123923 351.87373616 76.77569992 350.97392464 78.4735775 C349.93849539 80.38346443 349.93849539 80.38346443 350.14848518 83.25726891 C349.48848518 83.25726891 348.82848518 83.25726891 348.14848518 83.25726891 C347.90606087 82.47118248 347.66363655 81.68509605 347.41386604 80.87518883 C345.8021136 76.26693888 343.86688587 71.83775909 341.90239143 67.37055016 C341.4906115 66.43172493 341.07883156 65.4928997 340.65457344 64.52562523 C339.78611196 62.54904411 338.91613184 60.57312964 338.04472542 58.59784508 C336.71224973 55.57263989 335.39021828 52.54300543 334.06840706 49.51312828 C333.22204105 47.59032075 332.37505699 45.66778513 331.52739143 43.74555016 C331.13354759 42.83928383 330.73970375 41.9330175 330.33392525 40.99928856 C329.96021294 40.15798897 329.58650063 39.31668938 329.2014637 38.44989586 C328.87662498 37.71076454 328.55178627 36.97163322 328.21710396 36.21010399 C326.4245665 32.93435204 324.86281661 31.51125341 321.33598518 30.25726891 C317.94257169 29.98024859 317.94257169 29.98024859 314.77348518 32.31976891 Z " fill="#00485F" transform="translate(23.85151481628418,184.74273109436035)"/>
<path d="M0 0 C31.35 0 62.7 0 95 0 C93.07667315 6.41108949 91.22863282 12.28793648 88.5 18.3125 C88.16033203 19.06740723 87.82066406 19.82231445 87.47070312 20.60009766 C81.05917883 34.62030698 74.1114649 48.52512325 65 61 C64.278125 62.01707031 63.55625 63.03414063 62.8125 64.08203125 C49.97655328 81.76442242 33.91747335 96.76419728 13 104 C12.31164062 104.24363281 11.62328125 104.48726563 10.9140625 104.73828125 C6.99359688 105.99659664 4.30256023 106 0 106 C0 71.02 0 36.04 0 0 Z " fill="#187FF1" transform="translate(264,396)"/>
<path d="M0 0 C24.65499169 2.46549917 43.00181144 17.6845998 58.62890625 36.0234375 C71.91821631 52.61907671 95 84.20775866 95 106 C63.65 106 32.3 106 0 106 C0 71.02 0 36.04 0 0 Z " fill="#187FF1" transform="translate(264,10)"/>
<path d="M0 0 C31.35 0 62.7 0 95 0 C95 34.98 95 69.96 95 106 C75.77822118 104.07782212 61.627324 95.24185893 48 82 C47.21496094 81.2884375 46.42992187 80.576875 45.62109375 79.84375 C24.44768354 59.99580207 8.83505989 29.38868566 0 2 C0 1.34 0 0.68 0 0 Z " fill="#187FF1" transform="translate(153,396)"/>
<path d="M0 0 C0 34.98 0 69.96 0 106 C-31.35 106 -62.7 106 -95 106 C-92.95214615 99.17382052 -90.87848845 92.96976922 -87.9375 86.5625 C-87.54828369 85.70849609 -87.15906738 84.85449219 -86.75805664 83.97460938 C-80.50050858 70.41596593 -73.7808693 57.11793671 -65 45 C-64.27683594 43.98035156 -63.55367187 42.96070313 -62.80859375 41.91015625 C-49.96782332 24.23286637 -33.91707798 9.23566595 -13 2 C-12.31164062 1.75636719 -11.62328125 1.51273438 -10.9140625 1.26171875 C-6.99359688 0.00340336 -4.30256023 0 0 0 Z " fill="#187FF1" transform="translate(248,10)"/>
<path d="M0 0 C27.39 0 54.78 0 83 0 C72.73554335 20.5289133 52.90101568 39.10819896 35 53 C34.06542969 53.763125 33.13085938 54.52625 32.16796875 55.3125 C17.76337676 66.8509665 1.72854892 76.25779 -15 84 C-15.91531494 84.43554199 -15.91531494 84.43554199 -16.84912109 84.87988281 C-30.39948056 91.30995574 -45.22246498 97.2848455 -60 100 C-58.37852601 95.77403342 -55.20332238 93.10810207 -52 90.0625 C-29.84901725 68.35423159 -16.5169659 40.35089973 -5 12 C-3.35 8.04 -1.7 4.08 0 0 Z " fill="#187FF2" transform="translate(376,396)"/>
<path d="M0 0 C27.39 0 54.78 0 83 0 C84.65 3.96 86.3 7.92 88 12 C101.68235384 44.71974024 117.39995489 72.9446367 143 98 C142.67 98.66 142.34 99.32 142 100 C126.80036753 95.72790778 112.32109266 90.65582522 98 84 C97.28263672 83.66887207 96.56527344 83.33774414 95.82617188 82.99658203 C80.21354376 75.71192214 65.47058503 66.74554559 52 56 C51.09121094 55.28328125 50.18242188 54.5665625 49.24609375 53.828125 C34.83451822 42.2660644 21.41385581 29.55122258 10 15 C9.32493408 14.14825195 9.32493408 14.14825195 8.63623047 13.27929688 C7.23014834 11.50370158 5.83235053 9.72192792 4.4375 7.9375 C3.77427734 7.09674927 3.77427734 7.09674927 3.09765625 6.23901367 C0 2.23191416 0 2.23191416 0 0 Z " fill="#187FF2" transform="translate(53,396)"/>
<path d="M0 0 C19.99271664 5.26187933 38.75160318 12.2690597 57 22 C57.64888184 22.34111816 58.29776367 22.68223633 58.96630859 23.03369141 C75.01061927 31.51611815 89.42635614 41.98905142 103 54 C103.87011719 54.75925781 104.74023438 55.51851562 105.63671875 56.30078125 C115.63772523 65.13997536 124.77705632 74.48195389 133 85 C133.44859375 85.56638184 133.8971875 86.13276367 134.359375 86.71630859 C135.76679327 88.49346415 137.16608333 90.27669078 138.5625 92.0625 C139.22584351 92.90337158 139.22584351 92.90337158 139.90258789 93.76123047 C143 97.76819521 143 97.76819521 143 100 C115.61 100 88.22 100 60 100 C55 88 55 88 53.04296875 83.234375 C48.79150434 72.92051191 44.22736126 62.85716134 39 53 C38.38640625 51.84242187 37.7728125 50.68484375 37.140625 49.4921875 C27.5625781 32.11713549 15.73369451 17.17389017 1.36328125 3.5234375 C0 2 0 2 0 0 Z " fill="#187FF2" transform="translate(316,16)"/>
<path d="M0 0 C0 3 0 3 -1.1706543 4.43188477 C-1.71633057 4.93002686 -2.26200684 5.42816895 -2.82421875 5.94140625 C-3.43442871 6.51568359 -4.04463867 7.08996094 -4.67333984 7.68164062 C-5.3380127 8.30232422 -6.00268555 8.92300781 -6.6875 9.5625 C-32.28804053 34.32896822 -45.56759591 67.76223018 -59 100 C-86.39 100 -113.78 100 -142 100 C-131.73554335 79.4710867 -111.90101568 60.89180104 -94 47 C-93.06542969 46.236875 -92.13085938 45.47375 -91.16796875 44.6875 C-76.76698167 33.15192113 -60.73144067 23.72849614 -44 16 C-43.06075684 15.55648193 -43.06075684 15.55648193 -42.10253906 15.10400391 C-28.57106479 8.74012315 -14.39540684 4.0041498 0 0 Z " fill="#187FF2" transform="translate(195,16)"/>
<path d="M0 0 C35.97 0 71.94 0 109 0 C107 13 107 13 101 36 C67.67 36 34.34 36 0 36 C0 24.12 0 12.24 0 0 Z " fill="#1980F2" transform="translate(264,344)"/>
<path d="M0 0 C35.97 0 71.94 0 109 0 C109 11.88 109 23.76 109 36 C75.67 36 42.34 36 8 36 C1 8 1 8 0 0 Z " fill="#1980F2" transform="translate(139,344)"/>
<path d="M0 0 C33.33 0 66.66 0 101 0 C108 28 108 28 109 36 C73.03 36 37.06 36 0 36 C0 24.12 0 12.24 0 0 Z " fill="#1980F2" transform="translate(264,132)"/>
<path d="M0 0 C33.33 0 66.66 0 101 0 C101 11.88 101 23.76 101 36 C65.03 36 29.06 36 -8 36 C-6 23 -6 23 0 0 Z " fill="#1980F2" transform="translate(147,132)"/>
<path d="M0 0 C32.34 0 64.68 0 98 0 C92.23129149 14.99864212 92.23129149 14.99864212 88.9375 21.375 C88.44926758 22.34373047 88.44926758 22.34373047 87.95117188 23.33203125 C85.75977244 27.64539964 83.40834609 31.78539434 81 36 C51.63 36 22.26 36 -8 36 C-5.33333333 24 -2.66666667 12 0 0 Z " fill="#187FF2" transform="translate(389,344)"/>
<path d="M0 0 C32.34 0 64.68 0 98 0 C106 34 106 34 106 36 C76.63 36 47.26 36 17 36 C6.62612215 17.5575505 6.62612215 17.5575505 3.4375 9.5625 C3.09654297 8.73685547 2.75558594 7.91121094 2.40429688 7.06054688 C0 1.19251446 0 1.19251446 0 0 Z " fill="#187FF2" transform="translate(25,344)"/>
<path d="M0 0 C29.37 0 58.74 0 89 0 C99.37387785 18.4424495 99.37387785 18.4424495 102.5625 26.4375 C103.07393555 27.6759668 103.07393555 27.6759668 103.59570312 28.93945312 C106 34.80748554 106 34.80748554 106 36 C73.66 36 41.32 36 8 36 C0 2 0 2 0 0 Z " fill="#1880F2" transform="translate(381,132)"/>
<path d="M0 0 C29.37 0 58.74 0 89 0 C85 18 85 18 81 36 C48.66 36 16.32 36 -17 36 C-11.23129149 21.00135788 -11.23129149 21.00135788 -7.9375 14.625 C-7.61201172 13.97917969 -7.28652344 13.33335937 -6.95117188 12.66796875 C-4.75977244 8.35460036 -2.40834609 4.21460566 0 0 Z " fill="#187FF2" transform="translate(42,132)"/>
</svg>
